<?xml version="1.0" encoding="UTF-8"?>
<svg id="Calque_2" data-name="Calque 2" xmlns="http://www.w3.org/2000/svg" viewBox="0 0 35.12 39.28">
  <defs>
    <style>
      .cls-1 {
        fill: #f1f2f2;
        stroke-width: 0px;
      }
    </style>
  </defs>
  <g id="Layer_2" data-name="Layer 2">
    <path class="cls-1" d="M35.11,25.85v-14.07c0-1.39-.81-2.67-2.01-3.37L20.85,1.34l-1.42-.82c-1.21-.7-2.7-.7-3.91,0l-1.54.89-4.68,2.72-3.49,2.03-3.86,2.24C.75,9.11.01,10.39.01,11.78v14.1s0,1.67,0,1.67c.01,1.39.74,2.66,1.95,3.35l1.51.87,4.71,2.72,3.52,2.03,3.88,2.24c1.21.7,2.69.7,3.9,0l3.9-2.25,3.52-2.03,4.71-2.72,1.56-.9c1.21-.7,1.96-1.99,1.95-3.39v-1.62ZM26.32,30.93l-.03-10.64c0-.45-.49-.73-.88-.51l-2.21,1.27c-.18.1-.29.3-.29.51l.03,11.31-4.43,2.56c-.6.35-1.35.35-1.95,0l-5.11-2.95.02-6.65c0-.21-.11-.4-.29-.51l-2.21-1.28c-.39-.23-.88.06-.88.51l-.02,5.98-3.76-2.18c-.6-.35-.97-1-.97-1.69l.04-11.8v-2.25c0-.7.37-1.34.97-1.69l5.07-2.95,9.17,5.29c.18.1.41.1.59,0l2.19-1.27c.39-.23.39-.79,0-1.01l-8.59-4.96,3.72-2.16c.6-.35,1.35-.35,1.96,0l12.24,7.07c.6.35.97.99.98,1.69l.04,14.07c0,.7-.37,1.35-.98,1.7l-4.43,2.56Z"/>
  </g>
</svg>